<svg id="Layer_1" height="512" viewBox="0 0 512 512" width="512" xmlns="http://www.w3.org/2000/svg" data-name="Layer 1"><path d="m241.4 206.22-.01 57.53h29.22v-57.63z" fill="#c5a536"/><path d="m339 144v112.17l24.5-28.71 24.5 28.71v-139.17z" fill="#e75163"/><path d="m124 117v139.17l24.5-28.71 24.5 28.71v-112.17z" fill="#e75163"/><path d="m326 57v16h58v7.14c0 28.33-22.34 51.86-49.27 51.86h-7.73l-2 16h9.73c1.59 0 3.17.05 4.74-.07 19.6-1.46 36.72-11.865 47.79-27.355a69.268 69.268 0 0 0 12.74-40.435v-23.14z" fill="#c5a536"/><path d="m112 80.14a69.439 69.439 0 0 0 12.74 40.49 64.721 64.721 0 0 0 47.855 27.3c1.57.12 3.085.07 4.675.07h8.73l-1-16h-7.73c-26.93 0-49.27-23.53-49.27-51.86v-7.14h58v-16h-74z" fill="#c5a536"/><path d="m184 40v95.06a79.1 79.1 0 0 0 1.28 13.16 75.7 75.7 0 0 0 19.89 39.67 70.455 70.455 0 0 0 36.185 20.33 69.539 69.539 0 0 0 14.452 1.51 68.131 68.131 0 0 0 14.792-1.61c28.3-6.24 50.585-30.03 55.965-59.91a75.993 75.993 0 0 0 1.436-13.49v-94.72z" fill="#f9d438"/><path d="m337.98 18.66a12.471 12.471 0 0 0 -8.84-3.66h-146.28a12.5 12.5 0 1 0 0 25h146.28a12.5 12.5 0 0 0 8.84-21.34z" fill="#c5a536"/><path d="m224 263v22.5.5h64v-.5-22.5z" fill="#6d7486"/><path d="m296.85 286h-81.7a11.857 11.857 0 0 0 -12.15 11.68v12.32h106v-12.32a11.857 11.857 0 0 0 -12.15-11.68z" fill="#4a5160"/><path d="m323 416h115v81h-115z" fill="#f0cd7c"/><path d="m189.37 377h-115.37v120h114.89z" fill="#ea7288"/><path d="m189 310h134v187h-134z" fill="#71c2ff"/><path d="m235.17 187.89a75.7 75.7 0 0 1 -19.89-39.67 79.1 79.1 0 0 1 -1.28-13.16v-95.06h-30v95.06a79.1 79.1 0 0 0 1.28 13.16 75.7 75.7 0 0 0 19.89 39.67 70.455 70.455 0 0 0 36.185 20.33 69.539 69.539 0 0 0 14.452 1.51 68.131 68.131 0 0 0 14.792-1.61c.054-.012.107-.027.161-.039a70.488 70.488 0 0 1 -35.59-20.191z" fill="#ddbc33"/><path d="m204.02 36.34a12.5 12.5 0 0 1 8.84-21.34h-30a12.5 12.5 0 1 0 0 25h30a12.471 12.471 0 0 1 -8.84-3.66z" fill="#ad8c31"/><path d="m189 310h30v187h-30z" fill="#5fafd6"/><path d="m224 263v23h30v-.5-22.5z" fill="#8d94a3"/><path d="m215.15 286a11.857 11.857 0 0 0 -12.15 11.68v12.32h30v-12.32a11.857 11.857 0 0 1 12.15-11.68z" fill="#656e7f"/><path d="m184 96h144v26h-144z" fill="#e75163"/><path d="m297.18 96.18-28.46-4.14-12.72-25.78-12.72 25.78-28.46 4.14 20.59 20.06-4.86 28.34 25.45-13.38 25.45 13.38-4.86-28.34z" fill="#71c2ff"/><g fill="#f4f8fc"><path d="m215.947 473.472a6 6 0 0 1 -6-6v-50.614a6 6 0 0 1 12 0v50.614a6 6 0 0 1 -6 6z"/><path d="m215.947 374.119a6 6 0 0 1 -6-6v-27.261a6 6 0 0 1 12 0v27.261a6 6 0 0 1 -6 6z"/><path d="m215.947 400.472a6 6 0 0 1 -6-6v-4.806a6 6 0 0 1 12 0v4.806a6 6 0 0 1 -6 6z"/></g></svg>