<svg id="Flat" height="512" viewBox="0 0 512 512" width="512" xmlns="http://www.w3.org/2000/svg"><path d="m432 488h-40s-8-40-8-72-32-80-40-112l-16 104v80h-144v-80l-16-104c-8 32-40 80-40 112s-8 72-8 72h-40c-8-72 8-128 8-128-8-48 16-72 16-72-24-72 48-88 48-88l77.63-23.89 2.37-.73v-23.38h48v23.38l2.37.73 77.63 23.89s72 16 48 88c0 0 24 24 16 72 0 0 16 56 8 128z" fill="#f5cbaa"/><path d="m282.37 176.11a48.012 48.012 0 0 1 -52.74 0l2.37-24.11h48z" fill="#deb89a"/><path d="m208 72h96a0 0 0 0 1 0 0v48a48 48 0 0 1 -48 48 48 48 0 0 1 -48-48v-48a0 0 0 0 1 0 0z" fill="#f5cbaa"/><path d="m264 72s-8 24-56 24v-40a32 32 0 0 1 32-32h32a32 32 0 0 1 32 32v40s-24 0-40-24z" fill="#b17a62"/><g fill="#deb89a"><path d="m256 232a7.992 7.992 0 0 1 -4.438-1.344l-21.984-14.656h-13.578a8 8 0 0 1 0-16h16a8 8 0 0 1 4.438 1.344l19.562 13.041 19.562-13.041a8 8 0 0 1 4.438-1.344h16a8 8 0 0 1 0 16h-13.578l-21.984 14.656a7.992 7.992 0 0 1 -4.438 1.344z"/><path d="m297.827 338.193a55.8 55.8 0 0 1 -31.006-9.364l-11.144-7.43-16.061 9.177a55.727 55.727 0 0 1 -71.516-13.639l-6.347-7.937a8 8 0 0 1 12.494-10l6.352 7.94a39.805 39.805 0 0 0 51.08 9.742l20.352-11.63a8 8 0 0 1 8.407.29l15.262 10.174a40.108 40.108 0 0 0 50.472-5l12.175-12.175a8 8 0 0 1 11.314 11.314l-12.175 12.175a56.017 56.017 0 0 1 -39.659 16.363z"/><path d="m288 400h-24v-16h24a8 8 0 0 0 0-16h-24v-16a8 8 0 0 0 -16 0v16h-24a8 8 0 0 0 0 16h24v16h-24a8 8 0 0 0 0 16h24v24a8 8 0 0 0 16 0v-24h24a8 8 0 0 0 0-16z"/></g></svg>