<svg id="Layer_1" enable-background="new 0 0 512 512" height="512" viewBox="0 0 512 512" width="512" xmlns="http://www.w3.org/2000/svg"><g><path d="m371.297 469h-230.594c-77.708 0-140.703-62.995-140.703-140.703v-231.326c0-29.808 24.163-53.971 53.971-53.971h404.059c29.807 0 53.97 24.163 53.97 53.971v231.327c0 77.707-62.995 140.702-140.703 140.702z" fill="#e0e0e0"/><path d="m457.998 43h-30.905c29.824 0 54.002 24.149 54.002 53.939v231.44c0 77.663-63.032 140.621-140.785 140.621h30.905c77.754 0 140.785-62.958 140.785-140.621v-231.44c0-29.79-24.178-53.939-54.002-53.939z" fill="#bdbdbd"/><path d="m30.905 328.315v-231.362c0-12.749 10.335-23.083 23.083-23.083h404.022c12.749 0 23.083 10.335 23.083 23.083v231.362c0 60.649-49.166 109.815-109.815 109.815h-230.557c-60.65 0-109.816-49.166-109.816-109.815z" fill="#ffd54f"/><path d="m457.998 73.869h-30.905c12.756 0 23.097 10.329 23.097 23.07v231.44c0 60.614-49.194 109.751-109.879 109.751h30.905c60.684 0 109.879-49.137 109.879-109.751v-231.44c0-12.741-10.341-23.07-23.097-23.07z" fill="#ffc328"/><path d="m340.309 180.797h-168.618c-4.643 0-8.407-3.764-8.407-8.407v-32.796c0-19.346 15.683-35.03 35.03-35.03h115.373c19.346 0 35.03 15.683 35.03 35.03v32.796c-.001 4.643-3.765 8.407-8.408 8.407z" fill="#bbf7ff"/><path d="m256 371.38c-8.534 0-15.453-6.918-15.453-15.453v-107.138c0-8.534 6.918-15.453 15.453-15.453 8.534 0 15.453 6.918 15.453 15.453v107.139c0 8.534-6.919 15.452-15.453 15.452z" fill="#546e7a"/><path d="m252.689 151.587-28.42-28.42c-2.929-2.929-7.678-2.929-10.606 0-2.929 2.929-2.929 7.678 0 10.606l28.42 28.42c1.464 1.464 3.384 2.197 5.303 2.197s3.839-.732 5.303-2.197c2.93-2.928 2.93-7.677 0-10.606z" fill="#f74f68"/><g fill="#546e7a"><path d="m272.483 180.797h-32.966v-14.423c0-9.103 7.38-16.483 16.483-16.483 9.103 0 16.483 7.38 16.483 16.483z"/><path d="m313.687 97.063h-115.374c-23.451 0-42.53 19.079-42.53 42.53v32.796c0 8.771 7.136 15.907 15.907 15.907h168.62c8.771 0 15.906-7.136 15.906-15.907v-32.796c0-23.451-19.078-42.53-42.529-42.53zm27.529 75.327c0 .5-.406.907-.906.907h-168.619c-.5 0-.907-.407-.907-.907v-32.796c0-15.18 12.35-27.53 27.53-27.53h115.373c15.18 0 27.529 12.35 27.529 27.53z"/></g></g></svg>